<svg width="193" height="193" viewBox="0 0 193 193" fill="none" xmlns="http://www.w3.org/2000/svg">
<path d="M96.6667 176.38C94.4667 176.38 92.4107 175.788 90.4907 174.764L70.9787 163.18C68.0587 161.556 69.5227 160.964 70.4027 160.668C74.3707 159.348 75.1067 159.06 79.2107 156.724C79.6587 156.428 80.2427 156.564 80.6907 156.86L95.6507 165.82C96.2427 166.108 96.9787 166.108 97.4187 165.82L155.971 131.924C156.563 131.636 156.851 131.044 156.851 130.308V62.6441C156.851 61.9161 156.563 61.3241 155.971 61.0361L97.4187 27.2841C96.8347 26.9881 96.0987 26.9881 95.6507 27.2841L37.0827 61.0281C36.4987 61.3161 36.2027 62.0601 36.2027 62.6361V130.292C36.2027 130.876 36.4987 131.62 37.0827 131.908L53.0827 141.164C61.7387 145.548 67.1787 140.404 67.1787 135.284V68.5161C67.1787 67.6361 67.9067 66.7481 68.9387 66.7481H76.4267C77.2907 66.7481 78.1867 67.4841 78.1867 68.5161V135.292C78.1867 146.884 71.8827 153.644 60.8747 153.644C57.4987 153.644 54.8587 153.644 47.3707 149.964L31.9707 141.172C30.0943 140.081 28.5372 138.517 27.4548 136.636C26.3724 134.755 25.8027 132.622 25.8027 130.452V62.7881C25.8027 58.3881 28.1467 54.2761 31.9707 52.0761L90.4987 18.1801C92.3987 17.1639 94.52 16.6323 96.6747 16.6323C98.8293 16.6323 100.951 17.1639 102.851 18.1801L161.387 52.0761C165.219 54.2681 167.555 58.3881 167.555 62.7881V130.452C167.555 134.844 165.211 138.956 161.387 141.172L102.851 175.06C100.923 175.94 98.7227 176.38 96.6667 176.38V176.38ZM114.715 129.852C89.0347 129.852 83.7547 118.108 83.7547 108.14C83.7547 107.26 84.4907 106.372 85.5147 106.372H93.1467C94.0267 106.372 94.7547 106.956 94.7547 107.844C95.9307 115.612 99.2987 119.436 114.867 119.436C127.187 119.436 132.483 116.636 132.483 110.036C132.483 106.22 131.003 103.436 111.787 101.532C95.7947 99.9321 85.8187 96.3881 85.8187 83.6281C85.8187 71.7481 95.7947 64.7001 112.531 64.7001C131.307 64.7001 140.555 71.1721 141.723 85.2441C141.709 85.719 141.553 86.1788 141.275 86.5641C140.979 86.8521 140.547 87.1481 140.107 87.1481H132.483C132.106 87.1401 131.742 87.0067 131.45 86.7691C131.157 86.5316 130.952 86.2032 130.867 85.8361C129.099 77.7401 124.555 75.1161 112.531 75.1161C99.0187 75.1161 97.4027 79.8121 97.4027 83.3321C97.4027 87.5801 99.2987 88.9001 117.515 91.2521C135.563 93.5961 144.075 96.9721 144.075 109.604C143.915 122.524 133.363 129.852 114.715 129.852V129.852Z" fill="#8FD200"/>
</svg>
