<svg width="193" height="193" viewBox="0 0 193 193" fill="none" xmlns="http://www.w3.org/2000/svg">
<path d="M95.4665 23C57.8949 23 60.2411 39.3786 60.2411 39.3786L60.283 56.3467H96.1367V61.4413H46.0421C46.0421 61.4413 22 58.7004 22 96.809C22 134.917 42.9844 133.566 42.9844 133.566H55.5081V115.882C55.5081 115.882 54.833 94.7879 76.1575 94.7879C97.4819 94.7879 111.718 94.7879 111.718 94.7879C111.718 94.7879 131.697 95.1126 131.697 75.3778C131.697 55.6431 131.697 42.7469 131.697 42.7469C131.697 42.7469 134.731 23 95.4665 23ZM75.6967 34.4103C79.2639 34.4103 82.147 37.3085 82.147 40.8944C82.147 44.4802 79.2639 47.3784 75.6967 47.3784C72.1295 47.3784 69.2464 44.4802 69.2464 40.8944C69.2464 37.3085 72.1295 34.4103 75.6967 34.4103Z" fill="url(#paint0_linear_30:9)"/>
<path d="M96.5335 171C134.105 171 131.759 154.621 131.759 154.621L131.717 137.653H95.8634V132.559H145.958C145.958 132.559 170 135.3 170 97.191C170 59.0825 149.016 60.4339 149.016 60.4339H136.492V78.1177C136.492 78.1177 137.167 99.212 115.843 99.212C94.5181 99.212 80.2821 99.212 80.2821 99.212C80.2821 99.212 60.3029 98.8874 60.3029 118.622C60.3029 138.357 60.3029 151.253 60.3029 151.253C60.3029 151.253 57.2695 171 96.5335 171ZM116.303 159.59C112.736 159.59 109.853 156.691 109.853 153.106C109.853 149.52 112.736 146.622 116.303 146.622C119.87 146.622 122.754 149.52 122.754 153.106C122.754 156.691 119.87 159.59 116.303 159.59Z" fill="url(#paint1_linear_30:9)"/>
<defs>
<linearGradient id="paint0_linear_30:9" x1="36.2231" y1="35.9365" x2="109.788" y2="109.363" gradientUnits="userSpaceOnUse">
<stop stop-color="#387EB8"/>
<stop offset="1" stop-color="#366994"/>
</linearGradient>
<linearGradient id="paint1_linear_30:9" x1="81.2413" y1="82.8916" x2="160.231" y2="158.174" gradientUnits="userSpaceOnUse">
<stop stop-color="#FFE052"/>
<stop offset="1" stop-color="#FFC331"/>
</linearGradient>
</defs>
</svg>
