<svg width="192" height="193" viewBox="0 0 192 193" fill="none" xmlns="http://www.w3.org/2000/svg">
<path d="M95.5 113C104.613 113 112 105.613 112 96.5C112 87.3873 104.613 80 95.5 80C86.3873 80 79 87.3873 79 96.5C79 105.613 86.3873 113 95.5 113Z" fill="#61DAFB"/>
<path d="M49.0681 130L45.3586 129.048C17.8052 122.061 2 110.181 2 96.5C2 82.8096 17.8146 70.9389 45.3586 63.9523L49.0681 63.0094L50.1105 66.696C52.8953 76.3481 56.4634 85.7548 60.7788 94.8217L61.577 96.5L60.7788 98.1783C56.4589 107.258 52.8809 116.668 50.1105 126.323L49.0681 130V130ZM43.6494 72.5324C22.7167 78.4536 9.86033 87.4862 9.86033 96.5C9.86033 105.495 22.7073 114.537 43.6494 120.449C46.2132 112.265 49.3123 104.26 52.8996 96.5C49.2863 88.7273 46.1959 80.7201 43.6494 72.5324V72.5324ZM142.932 130L141.899 126.304C139.107 116.65 135.536 107.241 131.221 98.1689L130.423 96.5L131.221 94.8123C135.541 85.7513 139.1 76.3321 141.899 66.6772L142.932 63L146.641 63.9429C174.204 70.9295 190 82.8002 190 96.5C190 110.19 174.195 122.061 146.641 129.048L142.932 130V130ZM139.082 96.5C142.838 104.665 145.965 112.698 148.351 120.449C169.293 114.537 182.149 105.495 182.149 96.5C182.149 87.4862 169.302 78.463 148.351 72.5324C145.789 80.7176 142.693 88.7242 139.082 96.5V96.5Z" fill="#61DAFB"/>
<path d="M43.5396 72.5954L42.5053 68.9387C34.7393 41.6732 37.0898 22.1429 48.9645 15.3359C60.5761 8.632 79.2579 16.5548 98.8236 36.5726L101.494 39.3104L98.8236 42.0388C91.8743 49.2461 85.5228 57.0036 79.8315 65.2352L78.769 66.7541L76.9262 66.9041C66.9185 67.6879 56.9916 69.284 47.244 71.6765L43.5396 72.5954V72.5954ZM58.4136 20.7552C56.3075 20.7552 54.4459 21.2146 52.8758 22.1147C45.0909 26.5871 43.7182 42.1607 49.0774 63.1818C57.4546 61.3347 65.907 60.0127 74.4253 59.272C79.3568 52.2967 84.7366 45.6477 90.531 39.3667C78.2801 27.4872 66.7156 20.7552 58.4136 20.7552V20.7552ZM133.602 179.998C122.432 179.998 108.085 171.597 93.1918 156.352L90.531 153.623L93.1918 150.904C100.142 143.685 106.497 135.919 112.193 127.68L113.246 126.179L115.07 126.001C125.081 125.231 135.012 123.641 144.762 121.248L148.476 120.31L149.519 123.976C157.248 151.223 154.907 170.781 143.051 177.588C140.172 179.215 136.91 180.047 133.602 179.998V179.998ZM101.494 153.557C113.735 165.437 125.309 172.178 133.602 172.178C135.717 172.178 137.579 171.71 139.14 170.819C146.934 166.337 148.316 150.735 142.938 129.714C134.57 131.571 126.108 132.902 117.571 133.643C112.661 140.629 107.29 147.282 101.494 153.557V153.557Z" fill="#61DAFB"/>
<path d="M148.462 72.5922L144.748 71.6639C135.001 69.2639 125.071 67.6677 115.061 66.8914L113.237 66.732L112.185 65.213C106.497 56.9767 100.143 49.2184 93.1858 42.016L90.5254 39.2874L93.1858 36.5683C112.739 16.5592 131.409 8.6362 143.038 15.3309C154.901 22.1475 157.261 41.6784 149.505 68.9354L148.462 72.5922ZM117.562 59.2684C126.53 60.0654 135.028 61.4062 142.925 63.1783C148.292 42.1566 146.92 26.5825 139.127 22.1006C131.381 17.6281 116.8 24.4728 101.487 39.3624C107.277 45.6446 112.655 52.283 117.562 59.2684ZM58.4128 179.998C55.105 180.045 51.8442 179.214 48.9651 177.588C37.0921 170.781 34.7419 151.232 42.4974 123.974L43.5127 120.308L47.226 121.246C56.2882 123.524 66.2717 125.128 76.9133 126L78.737 126.178L79.7993 127.678C85.4773 135.911 91.8321 143.684 98.7886 150.903L101.458 153.622L98.7886 156.351C83.9073 171.606 69.5619 179.998 58.4128 179.998V179.998ZM49.0779 129.722C43.7195 150.744 45.092 166.346 52.8758 170.828C60.6313 175.235 75.1647 168.437 90.5254 153.557C84.7342 147.274 79.3552 140.625 74.4221 133.651C65.8966 132.899 57.4301 131.586 49.0779 129.722V129.722Z" fill="#61DAFB"/>
<path d="M96.0094 135C89.572 135 82.966 134.726 76.3319 134.168L74.4953 134.007L73.4365 132.476C69.6954 127.048 66.1756 121.469 62.8856 115.752C59.62 110.019 56.5847 104.156 53.7871 98.1769L53 96.5035L53.7871 94.8113C56.5888 88.8364 59.6154 82.975 62.8856 77.2459C66.1371 71.6113 69.6884 65.9768 73.4365 60.5124L74.4953 58.9998L76.3319 58.8296C89.421 57.7235 102.579 57.7235 115.668 58.8296L117.486 59.0092L118.545 60.5218C126.039 71.3821 132.621 82.8549 138.222 94.8207L139 96.513L138.222 98.1863C132.637 110.16 126.054 121.634 118.545 132.485L117.486 134.017L115.668 134.178C109.053 134.716 102.437 135 96.0094 135V135ZM78.8244 126.454C90.3966 127.333 101.622 127.333 113.185 126.454C119.64 116.917 125.378 106.905 130.351 96.5035C125.396 86.0925 119.657 76.0798 113.185 66.5535C101.748 65.6648 90.261 65.6648 78.8244 66.5535C72.3471 76.0764 66.608 86.0895 61.6581 96.5035C66.6419 106.9 72.3796 116.91 78.8244 126.454V126.454Z" fill="#61DAFB"/>
</svg>
