<svg width="148" height="149" viewBox="0 0 148 149" fill="none" xmlns="http://www.w3.org/2000/svg">
<g clip-path="url(#clip0_6:18)">
<path d="M6.9375 0.5C3.09567 0.5 0 3.59567 0 7.4375V141.562C0 145.404 3.09567 148.5 6.9375 148.5H141.062C144.904 148.5 148 145.404 148 141.562V7.4375C148 3.59567 144.904 0.5 141.062 0.5H6.9375ZM114.009 60.625C117.783 60.625 121.126 60.8532 124.042 61.3095C126.794 61.7217 129.493 62.4245 132.096 63.4062V78.5638C130.847 77.6998 129.519 76.9545 128.131 76.3377C126.699 75.6935 125.221 75.1575 123.71 74.7343C120.846 73.9363 117.889 73.5216 114.916 73.501C113.066 73.501 111.382 73.6737 109.865 74.0313C108.513 74.3205 107.216 74.8243 106.024 75.5237C104.975 76.165 104.173 76.9358 103.6 77.83C103.023 78.7312 102.723 79.7817 102.737 80.8517C102.737 82.0603 103.063 83.1518 103.699 84.1138C104.34 85.0758 105.253 85.9885 106.431 86.8518C107.608 87.7152 109.039 88.5538 110.722 89.3802C112.406 90.2127 114.312 91.0698 116.433 91.9455C119.331 93.1603 121.933 94.4553 124.24 95.8182C126.546 97.1872 128.526 98.735 130.178 100.462C131.831 102.182 133.089 104.149 133.965 106.363C134.84 108.577 135.284 111.148 135.284 114.09C135.284 118.141 134.513 121.552 132.984 124.302C131.49 127.015 129.346 129.314 126.743 130.993C123.939 132.771 120.83 134.017 117.574 134.668C114.083 135.408 110.402 135.778 106.535 135.778C102.73 135.795 98.9312 135.456 95.1887 134.767C91.9507 134.207 88.8104 133.183 85.8647 131.727V115.508C91.438 120.251 98.508 122.872 105.826 122.908C107.88 122.908 109.674 122.723 111.204 122.353C112.739 121.983 114.015 121.465 115.045 120.812C116.069 120.146 116.834 119.369 117.345 118.468C117.911 117.42 118.169 116.233 118.088 115.045C118.007 113.856 117.591 112.715 116.889 111.753C115.973 110.54 114.852 109.497 113.578 108.669C111.997 107.622 110.332 106.706 108.601 105.931C106.549 104.994 104.479 104.098 102.391 103.243C96.7303 100.881 92.5123 97.9888 89.7312 94.5787C86.9562 91.1685 85.5625 87.043 85.5625 82.2145C85.5625 78.4282 86.321 75.1783 87.838 72.4588C89.355 69.7393 91.4147 67.5008 94.0293 65.7433C96.7948 63.9189 99.8651 62.6052 103.094 61.8645C106.671 61.0213 110.335 60.6052 114.009 60.625V60.625ZM20.8125 61.7843H79.7843V75.1413H58.6203V134.625H41.8655V75.1413H20.8125V61.7843Z" fill="#3178C6"/>
</g>
<defs>
<clipPath id="clip0_6:18">
<rect width="148" height="148" fill="white" transform="translate(0 0.5)"/>
</clipPath>
</defs>
</svg>
